<svg width="85" height="86" viewBox="0 0 85 86" fill="none" xmlns="http://www.w3.org/2000/svg">
<g clip-path="url(#clip0)">
<path d="M76.9235 36.3449L63.6374 23.6319C61.106 21.4212 56.9936 21.6884 54.7497 24.265C54.0252 25.0969 53.5578 26.0695 53.3508 27.0867C50.8269 25.4132 47.1825 25.866 45.1251 28.2284C44.4006 29.0603 43.9332 30.0329 43.7194 31.0473C41.2019 29.3733 37.5552 29.8362 35.5005 32.1918C34.7882 33.0097 34.326 33.9621 34.1072 34.9505L27.8869 29.5332C25.272 27.2589 21.2981 27.5264 18.9959 30.1664C16.7181 32.7783 16.9927 36.7582 19.6078 39.0357L43.5059 59.8487L30.3965 62.845C26.846 63.605 24.3583 66.9044 24.6082 70.5263C24.7956 73.242 27.158 75.2994 29.8737 75.112L60.8359 72.9757C65.6564 72.643 70.0617 70.4518 73.2477 66.8007L78.0533 61.2793C81.2268 57.6389 82.7891 52.978 82.4567 48.1607C82.1463 43.662 80.1808 39.4657 76.9235 36.3449ZM75.5684 59.1213L70.7628 64.6427C68.1609 67.6267 64.553 69.4197 60.6093 69.6918L29.6471 71.8282C28.744 71.8905 27.9544 71.2059 27.8919 70.2996C27.7541 68.303 29.1264 66.4828 31.103 66.0561L47.3924 62.3322C47.9966 62.1948 48.4693 61.7301 48.6226 61.1289C48.7727 60.5313 48.5738 59.895 48.1068 59.4884L21.7691 36.5508C20.5262 35.4653 20.3955 33.5705 21.4958 32.3036C22.0402 31.682 22.7851 31.3369 23.5503 31.2841C24.3155 31.2313 25.1006 31.4709 25.7256 32.015L36.0317 40.9908C36.0565 41.0156 36.0878 41.0397 36.116 41.0642L43.2907 47.3097C43.9752 47.9059 45.0162 47.8341 45.6124 47.1495C46.2085 46.465 46.1367 45.424 45.4522 44.8279L38.2175 38.5271C37.0302 37.4344 36.9219 35.5778 38.0039 34.3319C39.0561 33.1309 41.0192 32.9888 42.2268 34.0405L45.6777 37.049C45.6988 37.0673 45.7166 37.0859 45.7375 37.101L49.402 40.2895C50.0865 40.8856 51.1275 40.8138 51.7236 40.1293C52.3198 39.4448 52.248 38.4038 51.5635 37.8076L47.8568 34.5825C46.6563 33.4907 46.5407 31.6215 47.6287 30.3685C48.6775 29.1678 50.644 29.0254 51.8516 30.0771L55.5173 33.2819C55.5207 33.2849 55.5209 33.2883 55.5243 33.2881L55.5278 33.2911C55.5553 33.3026 55.5485 33.2997 55.5413 33.2968C55.5413 33.2968 55.5415 33.3 55.5448 33.2998C55.5482 33.3028 55.5482 33.3028 55.5482 33.3028C55.5517 33.3058 55.5517 33.3058 55.5517 33.3058L55.5549 33.3056C55.5582 33.3054 55.5582 33.3054 55.5582 33.3054C56.25 33.8647 57.2603 33.7785 57.8407 33.105C58.4336 32.4207 58.362 31.3831 57.6775 30.787L57.4669 30.6036C56.2763 29.5111 56.1645 27.6515 57.2497 26.4052C58.3019 25.2042 60.3214 25.1144 61.4162 26.0616L74.6428 38.7259C77.3101 41.2804 78.9159 44.7097 79.1699 48.3908C79.4417 52.328 78.1607 56.1413 75.5684 59.1213Z" fill="#FE7021"/>
<path d="M55.5373 33.2974L55.541 33.2971C55.537 33.2955 55.5332 33.2939 55.5332 33.2939C55.5373 33.2974 55.5412 33.2971 55.5373 33.2974Z" fill="#FE7021"/>
<path d="M36.7945 27.3024C34.0354 22.1742 28.5223 19.1166 22.7397 19.5156C14.5927 20.0777 8.42034 27.165 8.98247 35.3119C9.38124 41.0913 13.1672 46.1355 18.6224 48.1643C18.8492 48.2476 19.0823 48.2778 19.3089 48.2621C19.9361 48.2189 20.5055 47.8166 20.7397 47.1934C21.0537 46.3403 20.6221 45.3934 19.7688 45.0762C15.5225 43.4984 12.5763 39.5776 12.2663 35.0855C11.829 28.748 16.6287 23.2367 22.9664 22.7994C27.4585 22.4894 31.747 24.8693 33.893 28.8586C34.3244 29.6603 35.3184 29.9612 36.1235 29.5295C36.922 29.1017 37.2224 28.101 36.7945 27.3024Z" fill="#FE7021"/>
<path d="M43.9851 27.3836C40.8618 18.219 31.9364 12.2823 22.2857 12.9482C10.5167 13.7602 1.60209 23.9962 2.41414 35.7652C3.08004 45.4161 10.1863 53.4413 19.6963 55.2762C19.8401 55.3059 19.9826 55.3126 20.1205 55.3031C20.8495 55.2528 21.4794 54.7243 21.6225 53.9754C21.7952 53.0825 21.2142 52.2186 20.3181 52.0461C12.276 50.4928 6.26145 43.7052 5.69796 35.5386C5.01077 25.579 12.5561 16.919 22.5122 16.232C30.6756 15.6687 38.2279 20.6905 40.8714 28.4464C41.1614 29.3041 42.068 29.7694 42.9614 29.4734C43.8187 29.18 44.2755 28.2445 43.9851 27.3836Z" fill="#FE7021"/>
</g>
<defs>
<clipPath id="clip0">
<rect width="79" height="79" fill="white" transform="translate(0.375 6.20996) rotate(-3.94709)"/>
</clipPath>
</defs>
</svg>
