<svg width="50" height="50" viewBox="0 0 50 50" fill="none" xmlns="http://www.w3.org/2000/svg">
<path d="M30.8255 19.3674C30.5984 19.3674 30.3914 19.2212 30.3144 19.0078C30.2394 18.8002 30.3008 18.5606 30.4671 18.4151C30.6453 18.2593 30.9113 18.2379 31.1124 18.3624C31.3036 18.4807 31.4038 18.7141 31.3576 18.9343C31.3053 19.1833 31.0804 19.3674 30.8255 19.3674Z" fill="#FE7021"/>
<path d="M33.0961 30.3457C32.238 30.3457 31.4399 30.6071 30.7771 31.0544L28.2641 28.4894C29.0533 27.5445 29.5288 26.3289 29.5288 25.0044C29.5288 23.8421 29.1626 22.7636 28.5395 21.8783L29.4743 20.9436C29.6867 20.7313 29.6867 20.3872 29.4744 20.1748C29.2622 19.9625 28.918 19.9625 28.7056 20.1748L27.8266 21.0537C26.8502 20.1284 25.5322 19.5601 24.084 19.5601C22.8841 19.5601 21.7735 19.9503 20.8726 20.6104L19.4 18.9145C19.4092 18.901 19.4183 18.8874 19.4272 18.8737C19.7752 18.3393 19.8942 17.7014 19.7622 17.0776C19.4899 15.7898 18.2207 14.9638 16.9326 15.2358C16.3087 15.3677 15.7736 15.7347 15.4257 16.269C15.0778 16.8035 14.9588 17.4413 15.0908 18.0652C15.328 19.1872 16.3221 19.9588 17.4259 19.9588C17.589 19.9588 17.7545 19.9419 17.9203 19.9069C18.1621 19.8558 18.3906 19.7693 18.6 19.6515L20.0634 21.3369C19.1791 22.3052 18.6392 23.5929 18.6392 25.0044C18.6392 25.6983 18.7697 26.3623 19.0075 26.9732L15.6391 29.8906C15.0368 29.1896 14.1442 28.7448 13.1497 28.7448C11.3405 28.7448 9.86856 30.2166 9.86856 32.0257C9.86856 33.8348 11.3405 35.3065 13.1497 35.3065C14.9589 35.3065 16.4308 33.8348 16.4308 32.0257C16.4308 31.6057 16.3515 31.2039 16.207 30.8345C16.2193 30.8255 16.2313 30.816 16.243 30.8058L19.5188 27.9687C20.4911 29.4605 22.1743 30.4486 24.0839 30.4486C25.3708 30.4486 26.5549 29.9999 27.4878 29.2507L29.9615 31.7757C29.3259 32.5057 28.9404 33.4591 28.9404 34.5008C28.9404 36.7919 30.8046 38.6558 33.0959 38.6558C35.3872 38.6558 37.2513 36.7919 37.2513 34.5008C37.2513 32.2097 35.3874 30.3457 33.0961 30.3457ZM13.1497 34.2192C11.94 34.2192 10.9558 33.2352 10.9558 32.0257C10.9558 30.8161 11.94 29.8321 13.1497 29.8321C14.3594 29.8321 15.3435 30.8161 15.3435 32.0257C15.3435 33.2352 14.3594 34.2192 13.1497 34.2192ZM17.6954 18.8432C16.9946 18.9918 16.3028 18.5416 16.1544 17.8403C16.0826 17.5007 16.1473 17.1533 16.3368 16.8623C16.5262 16.5713 16.8177 16.3715 17.1575 16.2996C17.8586 16.1512 18.5501 16.6013 18.6985 17.3026C18.7703 17.6422 18.7055 17.9896 18.5161 18.2806C18.3266 18.5715 18.0352 18.7714 17.6954 18.8432ZM19.7265 25.0045C19.7265 22.602 21.6812 20.6474 24.084 20.6474C26.4868 20.6474 28.4416 22.602 28.4416 25.0045C28.4416 27.4069 26.4868 29.3615 24.084 29.3615C21.6812 29.3615 19.7265 27.4069 19.7265 25.0045ZM33.0961 37.5686C31.4042 37.5686 30.0278 36.1924 30.0278 34.5008C30.0278 32.8092 31.4042 31.433 33.0961 31.433C34.7879 31.433 36.1642 32.8092 36.1642 34.5008C36.1642 36.1924 34.7879 37.5686 33.0961 37.5686Z" fill="#FE7021"/>
<path d="M34.308 18.5547C32.4367 18.5547 30.9142 17.0324 30.9142 15.1612C30.9142 13.29 32.4367 11.7677 34.308 11.7677C36.1794 11.7677 37.7019 13.29 37.7019 15.1612C37.7019 17.0324 36.1794 18.5547 34.308 18.5547ZM34.308 12.8549C33.0362 12.8549 32.0015 13.8895 32.0015 15.1612C32.0015 16.4329 33.0362 17.4674 34.308 17.4674C35.5799 17.4674 36.6146 16.4329 36.6146 15.1612C36.6146 13.8895 35.5799 12.8549 34.308 12.8549Z" fill="#FE7021"/>
<path d="M49.4511 25.2117C49.4511 38.824 38.3907 49.8589 24.747 49.8589C11.1033 49.8589 0.0429688 38.824 0.0429688 25.2117C0.0429688 11.5994 11.1033 0.564453 24.747 0.564453C38.3907 0.564453 49.4511 11.5994 49.4511 25.2117ZM1.26556 25.2117C1.26556 38.1503 11.7786 48.6391 24.747 48.6391C37.7155 48.6391 48.2285 38.1503 48.2285 25.2117C48.2285 12.2731 37.7155 1.78423 24.747 1.78423C11.7786 1.78423 1.26556 12.2731 1.26556 25.2117Z" fill="#FE7021"/>
</svg>
