<svg width="50" height="49" viewBox="0 0 50 49" fill="none" xmlns="http://www.w3.org/2000/svg">
<path d="M49.2924 24.5066C49.2924 37.956 38.3644 48.8589 24.884 48.8589C11.4036 48.8589 0.475586 37.956 0.475586 24.5066C0.475586 11.0572 11.4036 0.154297 24.884 0.154297C38.3644 0.154297 49.2924 11.0572 49.2924 24.5066ZM1.68355 24.5066C1.68355 37.2904 12.0707 47.6537 24.884 47.6537C37.6973 47.6537 48.0845 37.2904 48.0845 24.5066C48.0845 11.7228 37.6973 1.35948 24.884 1.35948C12.0707 1.35948 1.68355 11.7228 1.68355 24.5066Z" fill="#FE772B"/>
<path d="M25.163 14.3727C19.5765 14.3727 15.0336 18.9203 15.0336 24.5068V24.5403L13.0279 21.5197C12.8316 21.2229 12.4295 21.1415 12.1327 21.3378C11.8359 21.534 11.7545 21.9362 11.9508 22.233L14.8613 26.6131C14.9666 26.771 15.1342 26.8716 15.3209 26.8955C15.3496 26.9003 15.3735 26.9003 15.4023 26.9003C15.5602 26.9003 15.7134 26.8429 15.8331 26.7327L19.8781 23.0898C20.1414 22.8505 20.1653 22.4436 19.926 22.1755C19.6866 21.9122 19.2797 21.8883 19.0117 22.1276L16.3261 24.5547V24.5068C16.3261 19.6288 20.2898 15.6652 25.163 15.6652C30.0362 15.6652 34.0046 19.6288 34.0046 24.5068C34.0046 29.3848 30.041 33.3484 25.1678 33.3484C22.8078 33.3484 20.5866 32.4293 18.9207 30.7586C18.667 30.5049 18.2601 30.5049 18.0064 30.7586C17.7527 31.0123 17.7527 31.4192 18.0064 31.673C19.9212 33.5878 22.4631 34.6409 25.1678 34.6409C30.7494 34.6409 35.2971 30.098 35.2971 24.5068C35.2971 18.9155 30.7494 14.3727 25.163 14.3727Z" fill="#FE772B"/>
</svg>
