<svg width="60" height="57" viewBox="0 0 60 57" fill="none" xmlns="http://www.w3.org/2000/svg">
<g clip-path="url(#clip0)">
<path d="M18.8748 21.0658C19.5812 21.0658 20.1539 20.5223 20.1539 19.8518C20.1539 19.1812 19.5812 18.6377 18.8748 18.6377C18.1684 18.6377 17.5957 19.1812 17.5957 19.8518C17.5957 20.5223 18.1684 21.0658 18.8748 21.0658Z" fill="#FE7021"/>
<path d="M27.5682 21.0658C28.2746 21.0658 28.8473 20.5223 28.8473 19.8518C28.8473 19.1812 28.2746 18.6377 27.5682 18.6377C26.8617 18.6377 26.2891 19.1812 26.2891 19.8518C26.2891 20.5223 26.8617 21.0658 27.5682 21.0658Z" fill="#FE7021"/>
<path d="M58.2028 43.1186C58.2028 41.6945 56.9819 40.5356 55.4813 40.5356H49.0489C49.8072 39.1435 50.2176 37.6135 50.2469 36.0387C50.2524 35.7404 50.25 35.4346 50.2473 35.1109C50.2457 34.9101 50.244 34.6979 50.244 34.4685C50.2439 33.1267 49.0969 32.0346 47.6853 32.0304C47.4165 32.027 46.5397 32.0716 45.8486 32.7567C45.2607 33.3395 45.1652 34.0238 45.1606 34.38C45.1604 34.3861 45.1593 34.399 45.1523 34.4193C44.7875 35.4669 44.3121 36.4586 43.7392 37.3672C43.4919 37.7594 43.6263 38.2678 44.0396 38.5025C44.453 38.7373 44.9883 38.6096 45.2357 38.2173C45.8742 37.2046 46.4034 36.1017 46.8082 34.9388C46.8698 34.7619 46.9022 34.5807 46.9045 34.4004C46.906 34.2882 46.9344 34.0741 47.1085 33.9017C47.3157 33.6963 47.5965 33.6856 47.6524 33.6856C47.6657 33.6857 47.6694 33.6858 47.677 33.6858C48.1308 33.6858 48.4999 34.0369 48.4999 34.4686C48.4999 34.7025 48.5016 34.9189 48.5034 35.1236C48.506 35.4503 48.5082 35.7322 48.503 36.0097C48.4706 37.7575 47.8764 39.4415 46.7844 40.8794C46.593 41.1315 46.5665 41.4641 46.7156 41.7406C46.8649 42.0172 47.1646 42.1911 47.492 42.1911H55.4815C56.0204 42.1911 56.4589 42.6072 56.4589 43.1187V43.1757C56.4589 43.6873 56.0204 44.1034 55.4815 44.1034H53.8804C53.3988 44.1034 53.0083 44.474 53.0083 44.9312C53.0083 45.3884 53.3987 45.7589 53.8804 45.7589H55.4815C56.0204 45.7589 56.4589 46.1751 56.4589 46.6866V46.6986C56.4589 47.2101 56.0204 47.6262 55.4815 47.6262H53.8804C53.3988 47.6262 53.0083 47.9967 53.0083 48.4539C53.0083 48.9111 53.3987 49.2816 53.8804 49.2816H55.4815C56.0204 49.2816 56.4589 49.6978 56.4589 50.2094V50.2782C56.4589 50.7897 56.0204 51.2058 55.4815 51.2058H53.8804C53.3988 51.2058 53.0083 51.5763 53.0083 52.0335C53.0083 52.4907 53.3987 52.8613 53.8804 52.8613H55.4815C56.0204 52.8613 56.4589 53.2774 56.4589 53.789C56.4589 54.3005 56.0204 54.7167 55.4815 54.7167H43.4512C42.2378 54.7167 41.0884 54.2764 40.215 53.4771L39.7597 53.0605V43.3454C40.4686 42.9602 41.144 42.5223 41.7715 42.0377C42.1799 41.7223 42.5754 41.3821 42.947 41.0262C43.2861 40.7016 43.2837 40.1774 42.9417 39.8557C42.5998 39.5338 42.0476 39.5361 41.7085 39.8607C41.3803 40.1749 41.0313 40.4753 40.6709 40.7535C40.3123 41.0303 39.9359 41.2899 39.5452 41.531C39.2248 40.9409 38.5774 40.5355 37.8309 40.5355H35.6888C35.6865 40.535 35.6844 40.5342 35.6821 40.5337L32.8459 39.9037C31.0933 39.5145 29.8694 38.0496 29.8694 36.341V34.6052C31.1805 33.8498 32.3327 32.8699 33.2676 31.7228H33.3364C35.9798 31.7228 38.1304 29.6815 38.1304 27.1726C38.1304 27.1442 38.1289 27.1161 38.1259 27.0884C39.4308 26.7894 40.4034 25.6724 40.4034 24.3434V18.4085C40.4034 16.8513 39.0686 15.5843 37.4279 15.5843H35.8573V15.5794C35.8573 15.1222 35.4669 14.7516 34.9852 14.7516C34.8236 14.7516 34.6728 14.794 34.543 14.8668C34.5317 14.8725 34.5196 14.8793 34.5067 14.8873C33.0857 15.7724 29.8823 16.2619 28.2114 16.2619C24.0494 16.2619 20.0428 14.8514 16.6467 12.2746L12.5443 8.07726C12.9394 7.49462 13.3622 6.95147 13.8074 6.45863C14.121 6.11158 14.0788 5.5891 13.7132 5.29138C13.3475 4.99389 12.7969 5.03381 12.4835 5.38085C11.8417 6.09124 11.2424 6.89033 10.7025 7.75613C9.79891 9.13403 9.16512 10.6357 8.81884 12.2198C8.56648 13.3742 8.47533 14.5504 8.5409 15.7266C7.35468 16.0983 6.49596 17.1597 6.49596 18.4085V18.4524C4.15038 16.7696 2.74222 14.1353 2.74222 11.2881C2.74222 6.33482 6.98778 2.30524 12.2064 2.30524C13.3244 2.30524 14.4304 2.49348 15.4699 2.85507C15.2555 2.99222 15.0411 3.13463 14.8277 3.28732C14.4431 3.5625 14.3662 4.08137 14.656 4.44658C14.9458 4.81156 15.4924 4.88462 15.8773 4.60954C19.7029 1.87332 23.9215 2.02864 23.9619 2.03039C26.9194 2.17531 29.7166 3.44033 32.2756 5.79002C34.5462 7.8747 36.2389 10.8352 37.3067 14.5896C37.4117 14.9587 37.7636 15.2018 38.1481 15.2018C38.2233 15.2018 38.2998 15.1924 38.3759 15.173C38.8409 15.0538 39.1161 14.5995 38.9906 14.1581C37.8396 10.1113 35.9884 6.89547 33.4884 4.60025C30.6176 1.96432 27.4428 0.543551 24.052 0.377192C23.8933 0.369755 20.8141 0.244631 17.3448 1.83286C15.7637 1.05849 13.9978 0.650082 12.2064 0.650082C6.02604 0.650082 0.998047 5.42241 0.998047 11.2884C0.998047 15.0672 3.09196 18.529 6.49585 20.4428V24.3437C6.49585 25.901 7.8306 27.168 9.4713 27.168H11.3557C12.1551 30.4721 14.4233 33.2498 17.4702 34.8472V36.3415C17.4702 38.0499 16.2462 39.5148 14.4936 39.9041L9.73276 40.9614C5.41369 41.9205 2.39721 45.531 2.39721 49.7411V55.5443C2.39721 56.0015 2.78763 56.3721 3.2693 56.3721H28.8906H37.8308C38.6588 56.3721 39.3645 55.8733 39.6374 55.1764C40.7358 55.9512 42.0625 56.3721 43.4512 56.3721H55.4813C56.982 56.3721 58.2028 55.2132 58.2028 53.789C58.2028 53.1118 57.9268 52.4947 57.4762 52.0335C57.9268 51.5725 58.2028 50.9553 58.2028 50.2782V50.2094C58.2028 49.5322 57.9268 48.9151 57.4762 48.4539C57.9268 47.9929 58.2028 47.3757 58.2028 46.6986V46.6866C58.2028 46.0095 57.9268 45.3924 57.4762 44.9312C57.9268 44.47 58.2028 43.8529 58.2028 43.1757V43.1186ZM35.8572 24.5309V17.24H37.4278C38.1068 17.24 38.6592 17.7643 38.6592 18.4088V24.3436C38.6592 24.9882 38.1068 25.5124 37.4278 25.5124H35.8572V24.5309ZM35.5434 27.1679H36.3864C36.3864 27.1695 36.3862 27.1712 36.3862 27.1728C36.3862 28.3697 35.6169 29.3992 34.5231 29.8395C34.9709 29.0013 35.3165 28.1059 35.5434 27.1679ZM11.0419 24.5309V25.5125H9.4713C8.79234 25.5125 8.23991 24.9882 8.23991 24.3437V18.4089C8.23991 17.7643 8.79234 17.2401 9.4713 17.2401H11.0419V24.5309ZM11.7496 14.767C11.6108 14.7922 11.4841 14.8486 11.3771 14.9283C11.015 15.0783 10.6448 15.2143 10.2669 15.3334C10.2398 14.4014 10.3267 13.4711 10.5267 12.5564C10.7435 11.5649 11.0899 10.6104 11.5575 9.70508C12.5319 10.892 13.5945 11.9617 14.7281 12.908C13.6607 13.7704 12.7201 14.2908 12.3162 14.4967C12.1302 14.5915 11.9408 14.6808 11.7496 14.767ZM12.786 24.5309V16.4122V16.1294C12.9053 16.0725 13.0241 16.0149 13.1415 15.9549C13.629 15.7063 14.8071 15.0547 16.102 13.9684C19.6858 16.5234 23.8656 17.9175 28.2113 17.9175C29.6772 17.9175 32.2194 17.5918 34.113 16.9037V24.5308C34.113 26.573 33.4718 28.4755 32.3715 30.0675H24.6429C24.1613 30.0675 23.7708 30.4381 23.7708 30.8953C23.7708 31.3525 24.1612 31.723 24.6429 31.723H30.9445C29.017 33.5328 26.3685 34.6522 23.4495 34.6522C17.5697 34.6523 12.786 30.1118 12.786 24.5309ZM28.0185 41.3634V46.9862C26.6279 47.463 25.1679 47.7048 23.6697 47.7048C21.563 47.7048 19.4746 47.2092 17.6304 46.2718C17.2059 46.056 16.6773 46.2076 16.45 46.6106C16.2226 47.0135 16.3824 47.5153 16.807 47.731C18.9036 48.7969 21.2768 49.3603 23.6697 49.3603C25.1599 49.3603 26.6174 49.1488 28.0185 48.7323V54.7166H11.9689V52.6225C11.9689 52.1694 11.5819 51.8022 11.1046 51.8022C10.6273 51.8022 10.2404 52.1694 10.2404 52.6225V54.7166H4.14139V49.7411C4.14139 46.3038 6.60405 43.3564 10.1302 42.5733L11.0151 42.3767C11.7172 43.5453 12.5917 44.6083 13.6234 45.5422C13.7923 45.695 14.0089 45.771 14.2251 45.771C14.4553 45.771 14.685 45.6851 14.8564 45.5145C15.1887 45.1837 15.1757 44.6598 14.8271 44.3443C14.0449 43.6362 13.3652 42.844 12.7966 41.9811L14.8911 41.516C17.4366 40.9507 19.2144 38.8229 19.2144 36.3415V35.601C20.5366 36.0581 21.9629 36.3079 23.4496 36.3079C25.103 36.3079 26.6813 35.9986 28.1251 35.439V36.3416C28.1251 38.031 28.9497 39.5559 30.2789 40.536H28.8906V40.5356C28.409 40.5356 28.0185 40.9062 28.0185 41.3634ZM38.0155 42.8454C38.0155 42.8467 38.0155 42.848 38.0155 42.8492V54.541C38.0155 54.6377 37.9326 54.7164 37.8308 54.7164H29.7626V42.191H37.8308C37.9326 42.191 38.0155 42.2697 38.0155 42.3663V42.8454Z" fill="#FE7021"/>
<path d="M27.3258 27.039C26.9883 26.7188 26.441 26.7188 26.1036 27.039C25.3751 27.7305 24.4066 28.1113 23.3764 28.1113C22.3462 28.1113 21.3775 27.7306 20.6491 27.039C20.3116 26.7188 19.7644 26.7188 19.427 27.039C19.0894 27.3595 19.0894 27.8788 19.427 28.1992C20.4819 29.2004 21.8846 29.7518 23.3765 29.7518C24.8684 29.7518 26.271 29.2004 27.3259 28.1992C27.6633 27.8787 27.6633 27.3594 27.3258 27.039Z" fill="#FE7021"/>
<path d="M35.1394 45.3184C35.5658 45.3184 35.9115 44.9902 35.9115 44.5855C35.9115 44.1807 35.5658 43.8525 35.1394 43.8525C34.7129 43.8525 34.3672 44.1807 34.3672 44.5855C34.3672 44.9902 34.7129 45.3184 35.1394 45.3184Z" fill="#FE7021"/>
</g>
<defs>
<clipPath id="clip0">
<rect width="59" height="56" fill="white" transform="translate(0.0996094 0.37207)"/>
</clipPath>
</defs>
</svg>
