<svg width="39" height="40" viewBox="0 0 39 40" fill="none" xmlns="http://www.w3.org/2000/svg">
<g clip-path="url(#clip0)">
<path d="M17.0625 0.548218H5.68753C2.55122 0.548218 0 3.09944 0 6.23574V33.8608C0 36.997 2.55122 39.5482 5.68753 39.5482H7.3125C7.761 39.5482 8.12503 39.1842 8.12503 38.7357C8.12503 38.2872 7.761 37.9232 7.3125 37.9232H5.68753C3.4483 37.9232 1.62505 36.0999 1.62505 33.8607V6.23574C1.62505 3.99652 3.4483 2.17327 5.68753 2.17327H17.0625C19.3017 2.17327 21.125 3.99652 21.125 6.23574V14.3608C21.125 14.8093 21.489 15.1733 21.9375 15.1733C22.386 15.1733 22.75 14.8093 22.75 14.3608V6.23574C22.75 3.09944 20.1987 0.548218 17.0625 0.548218Z" fill="#FE7021"/>
<path d="M21.9375 7.04822H0.812525C0.364025 7.04822 0 7.41224 0 7.86074C0 8.30924 0.364025 8.67327 0.812525 8.67327H21.9375C22.386 8.67327 22.75 8.30924 22.75 7.86074C22.75 7.41224 22.386 7.04822 21.9375 7.04822Z" fill="#FE7021"/>
<path d="M14.625 29.7982H0.812525C0.364025 29.7982 0 30.1622 0 30.6107C0 31.0592 0.364025 31.4233 0.812525 31.4233H14.625C15.0735 31.4233 15.4375 31.0592 15.4375 30.6107C15.4375 30.1622 15.0735 29.7982 14.625 29.7982Z" fill="#FE7021"/>
<path d="M13.8125 3.79822H8.93753C8.48903 3.79822 8.125 4.16224 8.125 4.61074C8.125 5.05924 8.48903 5.42319 8.93753 5.42319H13.8125C14.261 5.42319 14.6251 5.05917 14.6251 4.61067C14.6251 4.16217 14.261 3.79822 13.8125 3.79822Z" fill="#FE7021"/>
<path d="M17.096 3.79822H17.0798C16.6313 3.79822 16.2754 4.16224 16.2754 4.61074C16.2754 5.05924 16.6475 5.42319 17.096 5.42319C17.5445 5.42319 17.9085 5.05917 17.9085 4.61067C17.9085 4.16217 17.5445 3.79822 17.096 3.79822Z" fill="#FE7021"/>
<path d="M36.6763 22.0552L30.5663 15.3407C29.3573 14.1317 27.3878 14.1301 26.1675 15.3505C25.7808 15.7372 25.5175 16.2003 25.381 16.6944C24.1655 15.7648 22.4121 15.8559 21.2925 16.9755C20.9074 17.3622 20.6441 17.8254 20.5043 18.3177C19.2889 17.3882 17.5355 17.4792 16.4175 18.6005C16.0388 18.9791 15.7789 19.4325 15.6375 19.9119L12.758 17.0323C11.549 15.8233 9.57947 15.8217 8.35912 17.0421C7.14852 18.2511 7.14852 20.2206 8.35912 21.4312L19.4221 32.4942L12.8603 33.5244C11.0874 33.7779 9.7501 35.3184 9.7501 37.1108C9.7501 38.4547 10.8437 39.5483 12.1876 39.5483H27.5097C29.8969 39.5483 32.141 38.6188 33.8293 36.9304L36.3854 34.3743C38.0722 32.6892 39.0001 30.4467 39.0001 28.0628C39.0001 25.8365 38.1746 23.7029 36.6763 22.0552ZM35.2366 33.2254L32.6805 35.7815C31.2993 37.1627 29.463 37.9232 27.5097 37.9232H12.1876C11.7391 37.9232 11.3751 37.5592 11.3751 37.1107C11.3751 36.1227 12.1128 35.2728 13.1008 35.1299L21.2502 33.8493C21.5525 33.8022 21.8011 33.5894 21.897 33.2985C21.9912 33.0092 21.9149 32.6891 21.6987 32.473L9.50635 20.2807C8.9295 19.7038 8.9295 18.7662 9.5161 18.1796C9.80532 17.8919 10.184 17.7473 10.5626 17.7473C10.9413 17.7473 11.3198 17.8919 11.6091 18.1812L19.739 26.3111C20.0559 26.6279 20.5711 26.6279 20.8879 26.3111C21.0455 26.1518 21.1252 25.9438 21.1252 25.7358C21.1252 25.5278 21.0456 25.3198 20.8879 25.1622L17.5681 21.8423C16.9912 21.2654 16.9912 20.3278 17.5778 19.7412C18.1531 19.1659 19.0939 19.1659 19.6692 19.7412L22.9891 23.061C23.3059 23.3779 23.8211 23.3779 24.138 23.061C24.2956 22.9018 24.3752 22.6938 24.3752 22.4858C24.3752 22.2778 24.2956 22.0698 24.1445 21.9187L22.4496 20.2238C21.8728 19.6469 21.8728 18.7093 22.4594 18.1227C23.0346 17.5474 23.9755 17.5474 24.5507 18.1227L26.2456 19.8176C26.2472 19.8192 26.2472 19.8192 26.2472 19.8192L26.2488 19.8208C26.2504 19.8224 26.2504 19.8224 26.2504 19.8224C26.252 19.824 26.252 19.824 26.252 19.824H26.2536C26.2552 19.824 26.2552 19.8256 26.2552 19.8256C26.5737 20.1262 27.0758 20.1213 27.3878 19.8093C27.7047 19.4925 27.7047 18.9773 27.3878 18.6604L27.318 18.5906C27.0385 18.3111 26.8841 17.9389 26.8841 17.5441C26.8841 17.1492 27.0368 16.7787 27.3261 16.4895C27.903 15.9142 28.8407 15.9158 29.3915 16.4618L35.4755 23.1487C36.6992 24.4958 37.3752 26.2411 37.3752 28.0627C37.3751 30.0128 36.6162 31.8458 35.2366 33.2254Z" fill="#FE7021"/>
</g>
<defs>
<clipPath id="clip0">
<rect width="39" height="39" fill="white" transform="translate(0 0.548218)"/>
</clipPath>
</defs>
</svg>
