<svg width="51" height="50" viewBox="0 0 51 50" fill="none" xmlns="http://www.w3.org/2000/svg">
<path d="M34.5973 34.6268H28.559C28.2257 34.6268 27.9552 34.3563 27.9552 34.023C27.9552 33.6897 28.2257 33.4192 28.559 33.4192H34.5973C35.5961 33.4192 36.4088 32.6064 36.4088 31.6077V30.4C36.4088 30.0667 36.6793 29.7962 37.0127 29.7962H38.2095C38.5428 29.7962 38.8133 29.5257 38.8133 29.1924V21.9464C38.8133 21.6131 38.5428 21.3426 38.2095 21.3426H37.0127C36.6793 21.3426 36.4088 21.0721 36.4088 20.7387V19.5311C36.4088 18.5323 35.5961 17.7196 34.5973 17.7196H30.9744C30.641 17.7196 30.3705 17.4491 30.3705 17.1158C30.3705 16.7824 30.641 16.5119 30.9744 16.5119H34.5973C36.2615 16.5119 37.6165 17.8669 37.6165 19.5311V20.1349H38.2095C39.2082 20.1349 40.0209 20.9477 40.0209 21.9464V29.1924C40.0209 30.1911 39.2082 31.0039 38.2095 31.0039H37.6165V31.6077C37.6165 33.2718 36.2615 34.6268 34.5973 34.6268Z" fill="#FE7021"/>
<path d="M18.8976 34.6268H14.067C12.4028 34.6268 11.0478 33.2718 11.0478 31.6077V19.5311C11.0478 17.8669 12.4028 16.5119 14.067 16.5119H22.5206C22.8539 16.5119 23.1244 16.7824 23.1244 17.1158C23.1244 17.4491 22.8539 17.7196 22.5206 17.7196H14.067C13.0682 17.7196 12.2555 18.5323 12.2555 19.5311V31.6077C12.2555 32.6064 13.0682 33.4192 14.067 33.4192H18.8976C19.2309 33.4192 19.5015 33.6897 19.5015 34.023C19.5015 34.3563 19.2309 34.6268 18.8976 34.6268Z" fill="#FE7021"/>
<path d="M22.2827 37.0421C22.1873 37.0421 22.0895 37.0192 22.0001 36.9721C21.7404 36.8344 21.6173 36.5289 21.7103 36.2487L24.2391 28.5885H19.5014C19.2768 28.5885 19.0715 28.4641 18.9665 28.2648C18.8626 28.0656 18.8771 27.8253 19.0051 27.6405L27.3694 15.5639C27.5336 15.3272 27.8464 15.2426 28.1072 15.3537C28.3717 15.4697 28.5178 15.7559 28.4563 16.0373L26.7559 23.7578H31.5781C31.8075 23.7578 32.0176 23.8883 32.1203 24.0948C32.2217 24.3013 32.1964 24.5477 32.0563 24.73L22.7609 36.8066C22.6438 36.96 22.465 37.0421 22.2827 37.0421ZM20.6548 27.3808H25.0748C25.2692 27.3808 25.4504 27.4738 25.5639 27.6308C25.6774 27.7878 25.7088 27.9895 25.6472 28.1743L23.9686 33.2573L30.3511 24.9655H26.0047C25.8223 24.9655 25.6484 24.8822 25.5337 24.7397C25.419 24.5972 25.3755 24.41 25.4142 24.2313L26.617 18.7714L20.6548 27.3808Z" fill="#FE7021"/>
<path d="M50.238 25.2116C50.238 38.8239 39.1777 49.8588 25.534 49.8588C11.8904 49.8588 0.830078 38.8239 0.830078 25.2116C0.830078 11.5994 11.8904 0.564453 25.534 0.564453C39.1777 0.564453 50.238 11.5994 50.238 25.2116ZM2.05266 25.2116C2.05266 38.1502 12.5656 48.639 25.534 48.639C38.5025 48.639 49.0154 38.1502 49.0154 25.2116C49.0154 12.273 38.5025 1.78423 25.534 1.78423C12.5656 1.78423 2.05266 12.273 2.05266 25.2116Z" fill="#FE7021"/>
</svg>
