<svg width="50" height="50" viewBox="0 0 50 50" fill="none" xmlns="http://www.w3.org/2000/svg">
<path d="M27.8727 21.3999C27.7504 21.3022 27.5958 21.254 27.4397 21.2649H25.0779L27.2991 18.7851L27.5072 18.5545L27.614 18.4196C27.6511 18.3674 27.6813 18.3107 27.704 18.2509C27.7295 18.1864 27.7428 18.1178 27.7433 18.0484C27.759 17.8845 27.6778 17.7263 27.5353 17.6436C27.3505 17.5588 27.1478 17.5202 26.9448 17.5311H24.1839C24.0365 17.5211 23.8906 17.5651 23.7734 17.6548C23.6765 17.7373 23.6226 17.8594 23.6272 17.9866C23.6272 18.1778 23.6909 18.294 23.8184 18.3352C24.0011 18.3872 24.1908 18.41 24.3807 18.4027H26.1801C26.1051 18.5077 26.0077 18.6314 25.8877 18.7738L25.4266 19.2912L24.8024 19.966L24.077 20.7701C23.8259 21.0512 23.6609 21.2387 23.5822 21.3324C23.4036 21.5492 23.4259 21.8679 23.6328 22.0578C23.7811 22.1695 23.965 22.2235 24.1501 22.2096H27.4341C27.5912 22.2219 27.7474 22.1759 27.8727 22.0803C27.9682 21.9968 28.0218 21.8753 28.0189 21.7485C28.0237 21.6164 27.9702 21.4889 27.8727 21.3999Z" fill="#FE7021"/>
<path d="M32.8492 24.2733C32.7508 24.1945 32.6262 24.1564 32.5006 24.1664H30.6112L32.3825 22.1871L32.5512 22.0015L32.658 21.8722C32.6882 21.8306 32.7127 21.7852 32.7311 21.7372C32.7524 21.6854 32.7639 21.6302 32.7649 21.5741C32.779 21.4429 32.7153 21.3155 32.6018 21.248C32.454 21.1801 32.2919 21.1492 32.1295 21.158H29.9027C29.7854 21.1515 29.6695 21.1874 29.5765 21.2592C29.4988 21.3246 29.4553 21.422 29.4584 21.5235C29.4584 21.6735 29.509 21.7672 29.6103 21.8047C29.7566 21.8452 29.9084 21.8623 30.0601 21.8553H31.4997C31.4434 21.9396 31.3647 22.0352 31.2635 22.1533L30.8924 22.5694L30.4088 23.1318L29.8464 23.7728C29.644 23.9977 29.5109 24.1515 29.4472 24.2339C29.3147 24.4039 29.3317 24.6464 29.4866 24.7962C29.6046 24.884 29.7504 24.926 29.897 24.9143H32.5062C32.6309 24.9243 32.7549 24.8883 32.8548 24.8131C32.9292 24.7457 32.9703 24.6491 32.9673 24.5488C32.9699 24.4441 32.9268 24.3436 32.8492 24.2733Z" fill="#FE7021"/>
<path d="M38.7479 21.1132C38.6256 21.0155 38.471 20.9673 38.3149 20.9782H35.9363L38.1575 18.4984L38.3655 18.2678L38.5005 18.1048C38.5376 18.0526 38.5678 17.9959 38.5905 17.9361C38.616 17.8716 38.6293 17.8029 38.6298 17.7336C38.6455 17.5696 38.5642 17.4115 38.4218 17.3288C38.237 17.244 38.0343 17.2054 37.8313 17.2163H35.0422C34.8949 17.2062 34.749 17.2503 34.6317 17.34C34.5349 17.4225 34.481 17.5446 34.4855 17.6718C34.4855 17.863 34.5493 17.9792 34.6767 18.0204C34.8595 18.0724 35.0492 18.0951 35.239 18.0879H37.0385C36.9635 18.1928 36.866 18.3165 36.7461 18.459L36.2793 18.9876L35.672 19.6624L34.9466 20.4665C34.6955 20.7477 34.5305 20.9351 34.4518 21.0288C34.2733 21.2457 34.2955 21.5643 34.5024 21.7542C34.6507 21.866 34.8346 21.9199 35.0197 21.906H38.2981C38.4568 21.926 38.6172 21.8859 38.7479 21.7936C38.8434 21.7101 38.897 21.5886 38.8941 21.4618C38.899 21.3297 38.8455 21.2022 38.7479 21.1132Z" fill="#FE7021"/>
<path d="M36.8079 30.5825C36.6478 30.4167 36.4026 30.3654 36.1894 30.4532C30.0947 32.9762 23.1087 30.0808 20.5856 23.986C19.3044 20.8911 19.3817 17.4004 20.7987 14.3653C20.9315 14.0845 20.8115 13.7493 20.5308 13.6165C20.3867 13.5483 20.2204 13.5446 20.0733 13.6061C13.3915 16.3509 10.1999 23.9926 12.9446 30.6745C15.6893 37.3563 23.3311 40.548 30.013 37.8032C33.0605 36.5513 35.5233 34.1956 36.9092 31.2066C37.0067 30.9976 36.9666 30.7501 36.8079 30.5825ZM25.0499 37.6678C18.4442 37.6666 13.0902 32.3108 13.0914 25.7052C13.0921 21.3677 15.441 17.3706 19.2299 15.2593C18.7812 16.5911 18.5532 17.9872 18.5551 19.3924C18.5554 26.6191 24.4142 32.4773 31.6409 32.4769C32.852 32.4768 34.0573 32.3086 35.2222 31.9771C33.0415 35.5032 29.1958 37.6545 25.0499 37.6678Z" fill="#FE7021"/>
<path d="M49.6503 25.2117C49.6503 38.824 38.5899 49.8589 24.9462 49.8589C11.3026 49.8589 0.242188 38.824 0.242188 25.2117C0.242188 11.5994 11.3026 0.564453 24.9462 0.564453C38.5899 0.564453 49.6503 11.5994 49.6503 25.2117ZM1.46478 25.2117C1.46478 38.1503 11.9778 48.6392 24.9462 48.6392C37.9147 48.6392 48.4277 38.1503 48.4277 25.2117C48.4277 12.2731 37.9147 1.78423 24.9462 1.78423C11.9778 1.78423 1.46478 12.2731 1.46478 25.2117Z" fill="#FE7021"/>
</svg>
