<svg width="67" height="67" viewBox="0 0 67 67" fill="none" xmlns="http://www.w3.org/2000/svg">
<g clip-path="url(#clip0)">
<path d="M49.7773 13.6268C50.3114 13.6268 50.7441 13.194 50.7441 12.66V11.3604C50.7441 10.8263 50.3114 10.3936 49.7773 10.3936C49.2433 10.3936 48.8105 10.8263 48.8105 11.3604V12.66C48.8105 13.1939 49.2434 13.6268 49.7773 13.6268Z" fill="#FE7021"/>
<path d="M60.2969 22.2119C59.7628 22.2119 59.3301 22.6447 59.3301 23.1787C59.3301 23.7128 59.7628 24.1455 60.2969 24.1455H61.5964C62.1304 24.1455 62.5632 23.7128 62.5632 23.1787C62.5632 22.6447 62.1304 22.2119 61.5964 22.2119H60.2969Z" fill="#FE7021"/>
<path d="M37.959 22.2119C37.4249 22.2119 36.9922 22.6447 36.9922 23.1787C36.9922 23.7128 37.4249 24.1455 37.959 24.1455H39.2586C39.7927 24.1455 40.2254 23.7128 40.2254 23.1787C40.2254 22.6447 39.7927 22.2119 39.2586 22.2119H37.959Z" fill="#FE7021"/>
<path d="M54.0183 53.0938C52.3013 53.0938 50.9043 54.4907 50.9043 56.2076C50.9043 57.9245 52.3013 59.3215 54.0183 59.3215C55.7352 59.3215 57.1321 57.9245 57.1321 56.2076C57.1321 54.4907 55.7352 53.0938 54.0183 53.0938ZM54.0183 57.3879C53.3673 57.3879 52.8379 56.8585 52.8379 56.2076C52.8379 55.5568 53.3673 55.0273 54.0183 55.0273C54.6691 55.0273 55.1985 55.5568 55.1985 56.2076C55.1985 56.8585 54.6691 57.3879 54.0183 57.3879Z" fill="#FE7021"/>
<path d="M18.7168 56.2076C18.7168 57.9245 20.1138 59.3215 21.8308 59.3215C23.5478 59.3215 24.9446 57.9245 24.9446 56.2076C24.9446 54.4907 23.5478 53.0938 21.8308 53.0938C20.1138 53.0938 18.7168 54.4906 18.7168 56.2076ZM23.0111 56.2076C23.0111 56.8585 22.4816 57.3879 21.8308 57.3879C21.1799 57.3879 20.6504 56.8585 20.6504 56.2076C20.6504 55.5568 21.1799 55.0273 21.8308 55.0273C22.4816 55.0273 23.0111 55.5568 23.0111 56.2076Z" fill="#FE7021"/>
<path d="M28.394 41.3689C29.4855 40.3066 29.6113 38.4587 28.3715 37.2521L24.3529 33.3405C22.9033 31.93 20.5761 31.9612 19.1652 33.4106L18.4127 34.1838C18.0403 34.5665 18.0485 35.1786 18.4311 35.5508L22.3048 39.3213L18.4311 43.0917C18.2474 43.2705 18.1422 43.5151 18.1388 43.7713C18.1353 44.0277 18.2339 44.275 18.4127 44.4588L19.1652 45.232C20.5808 46.6861 22.9029 46.7137 24.3529 45.302L28.394 41.3689ZM20.5509 43.8835L20.4726 43.8032L24.3652 40.0142C24.5521 39.8323 24.6577 39.5824 24.6577 39.3215C24.6577 39.0606 24.5522 38.8106 24.3652 38.6287L20.4726 34.8397L20.5509 34.7593C21.2183 34.0737 22.3188 34.0589 23.0043 34.7261L27.0228 38.6378C27.4517 39.0552 27.3944 39.6435 27.0454 39.9833L23.0043 43.9166C22.322 44.5806 21.2237 44.5748 20.5509 43.8835Z" fill="#FE7021"/>
<path d="M48.8105 23.1779C48.8105 23.712 49.2433 24.1447 49.7773 24.1447H53.0652C53.5993 24.1447 54.032 23.712 54.032 23.1779C54.032 22.6439 53.5993 22.2111 53.0652 22.2111H50.7441V16.1904C50.7441 15.6564 50.3114 15.2236 49.7773 15.2236C49.2433 15.2236 48.8105 15.6564 48.8105 16.1904V23.1779Z" fill="#FE7021"/>
<path d="M16.6152 14.916H33.2623C33.7964 14.916 34.2291 14.4833 34.2291 13.9492C34.2291 13.4152 33.7964 12.9824 33.2623 12.9824H16.6152C16.0813 12.9824 15.6484 13.4152 15.6484 13.9492C15.6484 14.4833 16.0813 14.916 16.6152 14.916Z" fill="#FE7021"/>
<path d="M12.5801 19.9102H29.8602C30.3941 19.9102 30.827 19.4774 30.827 18.9434C30.827 18.4093 30.3941 17.9766 29.8602 17.9766H12.5801C12.0461 17.9766 11.6133 18.4093 11.6133 18.9434C11.6133 19.4774 12.0461 19.9102 12.5801 19.9102Z" fill="#FE7021"/>
<path d="M22.4668 22.4307C21.9329 22.4307 21.5 22.8634 21.5 23.3975C21.5 23.9315 21.9329 24.3643 22.4668 24.3643H31.0655C31.5994 24.3643 32.0323 23.9315 32.0323 23.3975C32.0323 22.8634 31.5994 22.4307 31.0655 22.4307H22.4668Z" fill="#FE7021"/>
<path d="M14.3145 22.4307C13.7805 22.4307 13.3477 22.8634 13.3477 23.3975C13.3477 23.9315 13.7805 24.3643 14.3145 24.3643H18.606C19.1399 24.3643 19.5728 23.9315 19.5728 23.3975C19.5728 22.8634 19.1399 22.4307 18.606 22.4307H14.3145Z" fill="#FE7021"/>
<path d="M1.06641 37.6787H4.6023C5.13623 37.6787 5.5691 37.246 5.5691 36.7119C5.5691 36.1779 5.13623 35.7451 4.6023 35.7451H1.06641C0.532477 35.7451 0.0996094 36.1779 0.0996094 36.7119C0.0996094 37.246 0.532477 37.6787 1.06641 37.6787Z" fill="#FE7021"/>
<path d="M3.64453 46.1943H1.06641C0.532477 46.1943 0.0996094 46.6271 0.0996094 47.1611C0.0996094 47.6952 0.532477 48.1279 1.06641 48.1279H3.64453C4.17846 48.1279 4.61133 47.6952 4.61133 47.1611C4.61133 46.6271 4.17846 46.1943 3.64453 46.1943Z" fill="#FE7021"/>
<path d="M15.0183 38.0078H11.5703C11.0364 38.0078 10.6035 38.4405 10.6035 38.9746C10.6035 39.5087 11.0364 39.9414 11.5703 39.9414H15.0183C15.5522 39.9414 15.9851 39.5087 15.9851 38.9746C15.9851 38.4405 15.5522 38.0078 15.0183 38.0078Z" fill="#FE7021"/>
<path d="M58.882 36.7245C63.3615 33.7067 66.0996 28.6211 66.0996 23.1781C66.0996 20.5913 65.5112 18.1159 64.3503 15.8212C64.1094 15.3448 63.5277 15.1539 63.0514 15.3948C62.5749 15.6357 62.3839 16.2175 62.6249 16.6938C63.6474 18.7155 64.166 20.8973 64.166 23.1781C64.166 28.0732 61.6531 32.6403 57.5611 35.279L51.9324 29.1197C51.2786 28.404 50.3475 27.9937 49.3783 27.9937H36.2162C35.6675 26.4509 35.3892 24.8341 35.3892 23.1781C35.3892 15.2444 41.8438 8.78989 49.7776 8.78989C53.8931 8.78989 57.8202 10.559 60.552 13.6436C60.9057 14.0432 61.5167 14.0806 61.9167 13.7264C62.3165 13.3724 62.3536 12.7614 61.9995 12.3616C60.5792 10.7578 58.8733 9.46871 56.993 8.54148V5.26714C56.993 4.07733 56.0251 3.10938 54.8353 3.10938H44.7201C43.5303 3.10938 42.5624 4.07733 42.5624 5.26714V8.54058C37.1716 11.2087 33.4556 16.7671 33.4556 23.1781C33.4556 24.8261 33.6995 26.44 34.1797 27.9937H9.52627C8.29302 27.9937 7.27995 28.9471 7.18107 30.1555H3.64453C3.1106 30.1555 2.67773 30.5882 2.67773 31.1223C2.67773 31.6563 3.1106 32.089 3.64453 32.089H7.17128V41.4337H1.06641C0.532477 41.4337 0.0996094 41.8665 0.0996094 42.4005C0.0996094 42.9346 0.532477 43.3673 1.06641 43.3673H7.17128V46.1951C6.6416 46.2 6.2135 46.6306 6.2135 47.1614C6.2135 47.6922 6.64147 48.1228 7.17128 48.1277V54.9664C7.17128 55.9814 7.99705 56.8071 9.01193 56.8071H11.6131V57.4801H8.59672C8.06279 57.4801 7.62993 57.9128 7.62993 58.4469C7.62993 58.981 8.06279 59.4137 8.59672 59.4137H12.5799C13.1139 59.4137 13.5467 58.981 13.5467 58.4469V56.8071H14.4288C14.7356 60.6232 17.937 63.6352 21.8308 63.6352C23.1157 63.6352 24.3841 63.3 25.4988 62.6657C25.9628 62.4016 26.1249 61.8113 25.8609 61.3473C25.5969 60.8831 25.0067 60.7213 24.5424 60.9851C23.7187 61.4539 22.7809 61.7016 21.8308 61.7016C18.8011 61.7016 16.3361 59.2368 16.3361 56.207C16.3361 53.1772 18.8011 50.7124 21.8308 50.7124C24.8604 50.7124 27.3254 53.1772 27.3254 56.207C27.3254 57.0331 27.1463 57.8275 26.7931 58.5683C26.5633 59.0503 26.7679 59.6273 27.2497 59.857C27.7318 60.0867 28.3087 59.8823 28.5385 59.4004C28.9303 58.5788 29.1609 57.7085 29.2324 56.8071H46.6159C46.9227 60.6232 50.1241 63.6352 54.0179 63.6352C57.9116 63.6352 61.1129 60.6232 61.4198 56.8071H63.41C64.8931 56.8071 66.0996 55.6005 66.0996 54.1175V45.9616C66.0996 45.0978 65.7788 44.2708 65.196 43.6332L58.882 36.7245ZM44.496 5.26714C44.496 5.14352 44.5965 5.04297 44.7201 5.04297H54.8353C54.9589 5.04297 55.0594 5.14352 55.0594 5.26714V7.73775C53.3758 7.16116 51.5931 6.85642 49.7776 6.85642C47.93 6.85642 46.1533 7.16554 44.4958 7.73389V5.26714H44.496ZM50.5052 30.4242L60.5663 41.4337H53.3544C52.8203 41.4337 52.3876 41.8665 52.3876 42.4005C52.3876 42.9346 52.8203 43.3673 53.3544 43.3673H62.3334L63.7687 44.938C64.354 45.5784 64.108 46.2734 64.166 47.0108H63.4207C62.8866 47.0108 62.4539 47.4436 62.4539 47.9776C62.4539 48.5117 62.8866 48.9444 63.4207 48.9444H64.166V50.375H58.61C57.3452 49.3769 55.7505 48.7791 54.018 48.7791C52.2855 48.7791 50.6908 49.3769 49.426 50.375H38.8921V29.9274H43.0619V41.4216C43.0619 42.4945 43.9347 43.3674 45.0076 43.3674H49.4893C50.0233 43.3674 50.4561 42.9347 50.4561 42.4006C50.4561 41.8666 50.0233 41.4338 49.4893 41.4338H45.0076C45.0009 41.4338 44.9955 41.4283 44.9955 41.4216V29.9274H49.3785C49.8059 29.9274 50.2167 30.1085 50.5052 30.4242ZM46.7118 54.8737H38.8919V52.3086H47.6985C47.22 53.0813 46.8805 53.9479 46.7118 54.8737ZM28.15 52.3086H36.9583V54.8737H29.1366C28.968 53.9479 28.6285 53.0813 28.15 52.3086ZM9.10487 52.3086H15.5113C15.0328 53.0813 14.6932 53.9479 14.5246 54.8737H9.10487V52.3086ZM17.2386 50.375H9.10487V48.1283H13.2943C13.8283 48.1283 14.2611 47.6956 14.2611 47.1615C14.2611 46.6275 13.8283 46.1947 13.2943 46.1947H9.10487V43.3673H13.2943C13.8283 43.3673 14.2611 42.9346 14.2611 42.4005C14.2611 41.8665 13.8283 41.4337 13.2943 41.4337H9.10487V30.3488C9.10487 30.1164 9.29385 29.9273 9.52627 29.9273H36.9583V50.3749H26.4228C25.158 49.3768 23.5633 48.7789 21.8308 48.7789C20.0983 48.7789 18.5036 49.3769 17.2386 50.375ZM54.0179 61.7019C50.9881 61.7019 48.5232 59.2371 48.5232 56.2073C48.5232 53.1775 50.9881 50.7127 54.0179 50.7127C57.0477 50.7127 59.5125 53.1775 59.5125 56.2073C59.5125 59.2371 57.0477 61.7019 54.0179 61.7019ZM63.4099 54.8737H61.3238C61.1552 53.9479 60.8156 53.0813 60.3371 52.3086H64.166V54.1177C64.166 54.5346 63.8269 54.8737 63.4099 54.8737Z" fill="#FE7021"/>
</g>
<defs>
<clipPath id="clip0">
<rect width="66" height="66" fill="white" transform="translate(0.0996094 0.37207)"/>
</clipPath>
</defs>
</svg>
