<svg width="41" height="42" viewBox="0 0 41 42" fill="none" xmlns="http://www.w3.org/2000/svg">
<path d="M40.404 6.9016C33.3869 5.04531 26.7598 5.99232 20.3508 6.90817C14.1267 7.79744 7.69086 8.71706 1.00802 6.92651C0.767789 6.86197 0.510898 6.91314 0.313266 7.06472C0.115793 7.21623 0 7.45102 0 7.69998V34.4036C0 34.766 0.243437 35.0833 0.593539 35.177C3.57381 35.9756 6.47928 36.2605 9.2929 36.2605C11.9483 36.2605 14.5219 36.0065 16.996 35.6906C17.4347 35.6346 17.745 35.2335 17.6889 34.7948C17.6329 34.3561 17.232 34.0452 16.7932 34.1019C14.3784 34.4101 11.8694 34.6578 9.28906 34.6572V9.55499C13.1471 9.55419 16.8986 9.01927 20.5775 8.49356C24.3524 7.95415 28.0065 7.4322 31.7109 7.42844V32.5385C29.0288 32.5397 26.4303 32.7971 23.9325 33.1175C23.4938 33.1738 23.1838 33.575 23.2401 34.0136C23.2964 34.4523 23.6975 34.7622 24.1363 34.7061C29.0914 34.0704 34.4421 33.6848 39.9943 35.1535C40.2345 35.2171 40.4907 35.1656 40.6876 35.0138C40.8845 34.8622 40.9998 34.6278 40.9998 34.3793V7.6758C41 7.31232 40.7553 6.99457 40.404 6.9016ZM7.6875 34.6234C5.69436 34.5386 3.66245 34.2868 1.60156 33.7821V8.72506C3.66277 9.20193 5.68987 9.44352 7.6875 9.52424V34.6234ZM39.3984 33.3575C37.3307 32.8853 35.3 32.6482 33.3126 32.5691V7.46111C35.3108 7.54463 37.3306 7.79752 39.3984 8.29889V33.3575Z" fill="#FE7021"/>
<path d="M24.8144 28.2572C25.0625 28.2951 25.3134 28.2149 25.4934 28.0404C25.6733 27.8659 25.7611 27.6171 25.7306 27.3683L25.5059 25.5326L29.7064 23.1276C29.9721 22.9755 30.1279 22.685 30.1075 22.3794C30.087 22.0738 29.8941 21.8066 29.6105 21.691L28.6924 21.3172L29.7651 18.9407C29.8917 18.6603 29.8465 18.3322 29.6487 18.0965C29.4508 17.8607 29.1356 17.7593 28.8376 17.8352L26.3109 18.479L26.1023 17.51C26.0348 17.1967 25.787 16.9538 25.4725 16.8925C25.1573 16.8313 24.837 16.9636 24.6569 17.2286L24.09 18.0633L24.6722 14.83C24.7265 14.5286 24.6041 14.2226 24.3569 14.0417C24.1098 13.861 23.7811 13.837 23.5102 13.98L22.4877 14.5201L21.2215 11.89C21.0881 11.6129 20.8076 11.4366 20.5 11.4366C20.1924 11.4366 19.9119 11.6129 19.7785 11.8901L18.5124 14.5201L17.4899 13.98C17.2191 13.837 16.8903 13.8608 16.6431 14.0417C16.3959 14.2226 16.2735 14.5286 16.3278 14.83L16.91 18.0632L16.3431 17.2286C16.163 16.9635 15.8421 16.8313 15.5276 16.8925C15.213 16.9538 14.9653 17.1967 14.8978 17.5099L14.6891 18.479L12.1624 17.8352C11.8644 17.7592 11.549 17.8607 11.3512 18.0965C11.1535 18.3322 11.1082 18.6603 11.2348 18.9407L12.3075 21.3172L11.3894 21.691C11.1058 21.8065 10.9128 22.0737 10.8924 22.3794C10.8721 22.685 11.0277 22.9755 11.2935 23.1276L15.4941 25.5326L15.2693 27.3683C15.2389 27.6171 15.3266 27.8659 15.5066 28.0404C15.657 28.1864 15.8576 28.2664 16.0641 28.2664C16.1044 28.2664 16.145 28.2634 16.1855 28.2572L19.6992 27.7184V29.8546C19.6992 30.2969 20.0577 30.6554 20.4999 30.6554C20.9422 30.6554 21.3007 30.2969 21.3007 29.8546V27.7184L24.8144 28.2572ZM16.7514 24.407L13.5158 22.5545L13.6813 22.4871C13.8828 22.4051 14.0422 22.2445 14.123 22.0425C14.2037 21.8405 14.1987 21.6143 14.1092 21.416L13.3788 19.7979L15.0991 20.2363C15.3099 20.29 15.5335 20.2556 15.7185 20.1411C15.89 20.0348 16.0146 19.8681 16.0683 19.6748L17.7038 22.0827C17.9163 22.3956 18.3186 22.517 18.6687 22.3742C19.0189 22.2313 19.2213 21.8631 19.1543 21.4909L18.1951 16.1641L18.4992 16.3247C18.6915 16.4264 18.917 16.4452 19.1236 16.3772C19.3303 16.3092 19.5004 16.16 19.5947 15.9639L20.4999 14.0836L21.4051 15.9639C21.4995 16.1599 21.6696 16.3091 21.8762 16.3771C22.0828 16.4451 22.3083 16.4262 22.5007 16.3246L22.8047 16.1641L21.8455 21.4909C21.7785 21.863 21.9809 22.2313 22.331 22.3742C22.6813 22.5172 23.0836 22.3955 23.296 22.0827L24.9315 19.6749C24.9852 19.8682 25.1098 20.0349 25.2812 20.1411C25.4663 20.2558 25.6902 20.2902 25.9006 20.2363L27.6209 19.798L26.8906 21.4161C26.801 21.6144 26.7961 21.8406 26.8768 22.0426C26.9575 22.2446 27.117 22.4051 27.3184 22.4872L27.4839 22.5546L24.2484 24.4071C23.9687 24.5672 23.8123 24.8794 23.8514 25.1993L24.0124 26.5141L20.6213 25.994C20.5407 25.9817 20.4589 25.9817 20.3785 25.994L16.9873 26.5141L17.1483 25.1993C17.1875 24.8793 17.0311 24.5671 16.7514 24.407Z" fill="#FE7021"/>
<path d="M20.4651 33.6036H20.4645C20.0223 33.6036 19.6641 33.9621 19.6641 34.4044C19.6641 34.8467 20.0228 35.2052 20.4651 35.2052C20.9073 35.2052 21.2659 34.8467 21.2659 34.4044C21.2659 33.9621 20.9073 33.6036 20.4651 33.6036Z" fill="#FE7021"/>
</svg>
