<svg width="51" height="50" viewBox="0 0 51 50" fill="none" xmlns="http://www.w3.org/2000/svg">
<path d="M50.1263 25.2109C50.1263 38.8233 39.0658 49.8584 25.422 49.8584C11.7782 49.8584 0.717773 38.8233 0.717773 25.2109C0.717773 11.5985 11.7782 0.563477 25.422 0.563477C39.0658 0.563477 50.1263 11.5985 50.1263 25.2109ZM1.94037 25.2109C1.94037 38.1496 12.4535 48.6386 25.422 48.6386C38.3906 48.6386 48.9037 38.1496 48.9037 25.2109C48.9037 12.2722 38.3906 1.78327 25.422 1.78327C12.4535 1.78327 1.94037 12.2722 1.94037 25.2109Z" fill="#FE762A"/>
<path d="M38.1566 25.1804H31.907V24.2988H33.5932C33.8075 24.2988 33.9813 24.1253 33.9813 23.9113C33.9813 23.6973 33.8075 23.5238 33.5932 23.5238H31.907V22.6421H33.0776C33.5138 22.6421 33.9238 22.4726 34.2322 22.1647L36.7849 19.6162C36.9513 19.6989 37.1356 19.7429 37.3269 19.7429C37.6522 19.7429 37.9581 19.6164 38.1881 19.3868C38.4181 19.1572 38.5448 18.8519 38.5448 18.5271C38.5448 18.2023 38.4181 17.897 38.1881 17.6674C37.9581 17.4377 37.6522 17.3112 37.3269 17.3112C37.0016 17.3112 36.6958 17.4377 36.4658 17.6673C36.2357 17.897 36.109 18.2023 36.109 18.527C36.109 18.718 36.1531 18.9021 36.236 19.0681L33.6832 21.6167C33.5215 21.7781 33.3064 21.8671 33.0776 21.8671H31.9069V21.0121C31.9069 19.8849 30.9884 18.968 29.8594 18.968H29.003V15.5375C29.4847 15.3754 29.8327 14.9203 29.8327 14.3854C29.8327 13.7149 29.2863 13.1695 28.6148 13.1695C27.9433 13.1695 27.397 13.715 27.397 14.3854C27.397 14.9203 27.745 15.3753 28.2267 15.5375V18.9679H27.3436V17.2846C27.3436 17.0705 27.1698 16.8971 26.9554 16.8971C26.7411 16.8971 26.5673 17.0705 26.5673 17.2846V18.9679H25.6841V12.7287C25.6841 12.5147 25.5103 12.3412 25.296 12.3412C25.0816 12.3412 24.9078 12.5147 24.9078 12.7287V18.9679H24.0247V17.2846C24.0247 17.0705 23.8509 16.8971 23.6365 16.8971C23.4222 16.8971 23.2484 17.0705 23.2484 17.2846V18.9679H22.3653V17.7993C22.3653 17.3639 22.1954 16.9545 21.887 16.6467L19.3334 14.0973C19.559 13.6426 19.4834 13.0756 19.1046 12.6974C18.6297 12.2233 17.8571 12.2234 17.3822 12.6974C16.9074 13.1714 16.9074 13.9427 17.3822 14.4168C17.6197 14.6538 17.9315 14.7724 18.2434 14.7724C18.4291 14.7724 18.6145 14.7293 18.7845 14.6453L21.3381 17.1947C21.4999 17.3562 21.589 17.5709 21.589 17.7993V18.9679H20.7326C20.5595 18.9679 20.3873 18.9896 20.2208 19.0323C20.0133 19.0857 19.8883 19.2969 19.9417 19.5042C19.9951 19.7115 20.2068 19.8363 20.4143 19.7829C20.5176 19.7564 20.6246 19.7429 20.7325 19.7429H29.8594C30.5604 19.7429 31.1306 20.3123 31.1306 21.0121V30.1238C31.1306 30.2314 31.1172 30.3382 31.0907 30.4412C31.0373 30.6484 31.1624 30.8597 31.3699 30.9129C31.4023 30.9212 31.4348 30.9252 31.4669 30.9252C31.6398 30.9252 31.7975 30.809 31.8425 30.6341C31.8853 30.4681 31.9069 30.2964 31.9069 30.1237V29.2687H35.343C35.5055 29.7496 35.9613 30.0971 36.4971 30.0971C37.1687 30.0971 37.715 29.5517 37.715 28.8812C37.715 28.2108 37.1686 27.6654 36.4971 27.6654C35.9613 27.6654 35.5055 28.0128 35.343 28.4937H31.9069V27.612H33.5931C33.8075 27.612 33.9813 27.4385 33.9813 27.2245C33.9813 27.0105 33.8075 26.837 33.5931 26.837H31.9069V25.9554H38.1566C38.3709 25.9554 38.5447 25.7819 38.5447 25.5679C38.5447 25.3539 38.3709 25.1804 38.1566 25.1804ZM37.0146 18.2154C37.0981 18.1321 37.2089 18.0863 37.3269 18.0863C37.4448 18.0863 37.5557 18.1321 37.6391 18.2154C37.7225 18.2987 37.7684 18.4093 37.7684 18.5271C37.7684 18.6448 37.7225 18.7555 37.6391 18.8388C37.5557 18.9221 37.4448 18.9679 37.3269 18.9679C37.2089 18.9679 37.0981 18.9221 37.0146 18.8388C36.9312 18.7555 36.8853 18.6448 36.8853 18.5271C36.8853 18.4093 36.9312 18.2986 37.0146 18.2154ZM18.5556 13.8689C18.3835 14.0406 18.1033 14.0407 17.9311 13.8688C17.7589 13.6969 17.7589 13.4172 17.9311 13.2454C18.0172 13.1594 18.1302 13.1165 18.2434 13.1165C18.3564 13.1165 18.4695 13.1595 18.5556 13.2454C18.7278 13.4173 18.7278 13.697 18.5556 13.8689ZM28.6148 14.8262C28.3714 14.8262 28.1733 14.6284 28.1733 14.3854C28.1733 14.1423 28.3713 13.9445 28.6148 13.9445C28.8583 13.9445 29.0564 14.1423 29.0564 14.3854C29.0564 14.6284 28.8583 14.8262 28.6148 14.8262ZM36.4972 28.4405C36.7407 28.4405 36.9387 28.6382 36.9387 28.8813C36.9387 29.1244 36.7406 29.3221 36.4972 29.3221C36.2537 29.3221 36.0556 29.1243 36.0556 28.8813C36.0556 28.6382 36.2537 28.4405 36.4972 28.4405Z" fill="#FE762A"/>
<path d="M33.2097 36.7191C32.8309 36.3409 32.263 36.2654 31.8075 36.4906L29.2538 33.9411C29.0921 33.7797 29.003 33.5649 29.003 33.3366V32.1679H29.8594C30.0325 32.1679 30.2046 32.1462 30.371 32.1035C30.5786 32.0502 30.7036 31.8389 30.6502 31.6316C30.5968 31.4244 30.3853 31.2996 30.1775 31.3529C30.0743 31.3794 29.9673 31.3929 29.8594 31.3929H20.7325C20.0315 31.3929 19.4613 30.8235 19.4613 30.1237V21.0121C19.4613 20.9043 19.4747 20.7975 19.5013 20.6945C19.5547 20.4873 19.4298 20.276 19.2222 20.2226C19.0145 20.1693 18.8029 20.2941 18.7495 20.5013C18.7067 20.6673 18.685 20.8392 18.685 21.0121V21.8671H15.2488C15.0864 21.3861 14.6306 21.0387 14.0947 21.0387C13.4232 21.0387 12.8769 21.5841 12.8769 22.2546C12.8769 22.925 13.4232 23.4704 14.0947 23.4704C14.6306 23.4704 15.0863 23.123 15.2488 22.6421H18.6849V23.5237H16.9988C16.7844 23.5237 16.6106 23.6972 16.6106 23.9112C16.6106 24.1253 16.7844 24.2988 16.9988 24.2988H18.6849V25.1804H12.4353C12.221 25.1804 12.0472 25.3539 12.0472 25.5679C12.0472 25.7819 12.221 25.9554 12.4353 25.9554H18.6849V26.837H16.9988C16.7844 26.837 16.6106 27.0105 16.6106 27.2245C16.6106 27.4385 16.7844 27.612 16.9988 27.612H18.6849V28.4937H17.5143C17.0782 28.4937 16.6681 28.6633 16.3598 28.9711L13.807 31.5197C13.6407 31.4369 13.4563 31.3929 13.265 31.3929C12.9397 31.3929 12.6339 31.5194 12.4038 31.749C12.1739 31.9787 12.0472 32.284 12.0472 32.6087C12.0472 32.9335 12.1739 33.2388 12.4039 33.4685C12.6339 33.6981 12.9398 33.8246 13.2651 33.8246C13.5904 33.8246 13.8962 33.6981 14.1263 33.4685C14.3563 33.2388 14.483 32.9335 14.483 32.6087C14.483 32.4178 14.4389 32.2337 14.356 32.0676L16.9088 29.5191C17.0705 29.3577 17.2856 29.2687 17.5144 29.2687H18.6851V30.1237C18.6851 31.2508 19.6036 32.1678 20.7326 32.1678H21.5891V35.5982C21.1073 35.7604 20.7593 36.2154 20.7593 36.7504C20.7593 37.4208 21.3057 37.9662 21.9772 37.9662C22.6487 37.9662 23.195 37.4207 23.195 36.7504C23.195 36.2154 22.8471 35.7604 22.3653 35.5982V32.1678H23.2485V33.8512C23.2485 34.0652 23.4222 34.2387 23.6366 34.2387C23.851 34.2387 24.0248 34.0652 24.0248 33.8512V32.1678H24.9078V38.4071C24.9078 38.6211 25.0816 38.7946 25.296 38.7946C25.5103 38.7946 25.6841 38.6211 25.6841 38.4071V32.1679H26.5672V33.8513C26.5672 34.0653 26.741 34.2388 26.9554 34.2388C27.1697 34.2388 27.3435 34.0653 27.3435 33.8513V32.1679H28.2266V33.3366C28.2266 33.772 28.3965 34.1813 28.7049 34.4892L31.2585 37.0386C31.0329 37.4933 31.1086 38.0603 31.4874 38.4385C31.7248 38.6755 32.0367 38.794 32.3486 38.794C32.6604 38.794 32.9723 38.6755 33.2097 38.4385C33.6846 37.9644 33.6846 37.1931 33.2097 36.7191ZM14.0947 22.6954C13.8512 22.6954 13.6532 22.4976 13.6532 22.2546C13.6532 22.0115 13.8513 21.8137 14.0947 21.8137C14.3382 21.8137 14.5363 22.0115 14.5363 22.2546C14.5364 22.4976 14.3382 22.6954 14.0947 22.6954ZM13.5773 32.9205C13.4938 33.0037 13.383 33.0496 13.265 33.0496C13.1471 33.0496 13.0362 33.0037 12.9528 32.9205C12.8694 32.8372 12.8235 32.7265 12.8235 32.6087C12.8235 32.491 12.8694 32.3803 12.9528 32.297C13.0362 32.2138 13.1471 32.1679 13.265 32.1679C13.383 32.1679 13.4938 32.2138 13.5773 32.297C13.6607 32.3803 13.7066 32.491 13.7066 32.6087C13.7066 32.7265 13.6607 32.8372 13.5773 32.9205ZM22.4187 36.7505C22.4187 36.9935 22.2206 37.1913 21.9771 37.1913C21.7336 37.1913 21.5355 36.9935 21.5355 36.7505C21.5355 36.5074 21.7336 36.3096 21.9771 36.3096C22.2205 36.3096 22.4187 36.5074 22.4187 36.7505ZM32.6608 37.8905C32.4887 38.0624 32.2085 38.0623 32.0363 37.8905C31.8641 37.7186 31.8641 37.4389 32.0363 37.2671C32.1224 37.1812 32.2355 37.1382 32.3486 37.1382C32.4617 37.1382 32.5748 37.1812 32.6608 37.2671C32.833 37.4389 32.833 37.7186 32.6608 37.8905Z" fill="#FE762A"/>
<path d="M29.4179 24.5324C29.4179 23.7037 28.8108 23.0017 27.9796 22.7736C28.0041 22.6723 28.0178 22.5681 28.0178 22.4616C28.0178 21.677 27.3202 21.0386 26.4629 21.0386C25.9985 21.0386 25.5813 21.2261 25.2961 21.5225C25.011 21.2261 24.5937 21.0386 24.1293 21.0386C23.2719 21.0386 22.5744 21.677 22.5744 22.4616C22.5744 22.5681 22.5881 22.6723 22.6127 22.7736C21.7815 23.0017 21.1743 23.7037 21.1743 24.5324C21.1743 24.9375 21.3179 25.3196 21.5831 25.6352C21.3238 25.9703 21.1743 26.3772 21.1743 26.8104C21.1742 27.4692 21.5268 28.0844 22.1077 28.4661V28.467C22.1077 29.3658 22.9099 30.097 23.896 30.097C24.4627 30.097 24.9683 29.8553 25.2961 29.4792C25.624 29.8553 26.1295 30.097 26.6962 30.097C27.6452 30.097 28.4236 29.4197 28.4808 28.5676C29.0572 28.2337 29.4179 27.6489 29.4179 27.0174C29.4179 26.5529 29.2196 26.1098 28.8782 25.7749C29.2195 25.44 29.4179 24.9969 29.4179 24.5324ZM28.0442 26.1176C28.4182 26.3146 28.6415 26.6511 28.6415 27.0174C28.6415 27.2906 28.5143 27.5511 28.2996 27.746C28.0955 27.3688 27.7348 27.0685 27.2791 26.9256C27.0747 26.8614 26.8568 26.9749 26.7925 27.1791C26.7282 27.3833 26.842 27.6008 27.0465 27.6649C27.4422 27.7891 27.7081 28.1114 27.7081 28.467C27.7081 28.9385 27.2541 29.3221 26.696 29.3221C26.138 29.3221 25.6841 28.9385 25.6841 28.467V25.982C25.6841 25.5106 26.138 25.127 26.696 25.127C26.9104 25.127 27.0842 24.9535 27.0842 24.7395C27.0842 24.5255 26.9104 24.352 26.696 24.352C26.3206 24.352 25.972 24.4583 25.6841 24.6391V24.1442C25.6841 23.9302 25.5103 23.7567 25.2959 23.7567C25.0815 23.7567 24.9078 23.9302 24.9078 24.1442V26.2954C24.7771 26.2136 24.6339 26.1459 24.4789 26.0972C24.2743 26.0331 24.0565 26.1466 23.9923 26.3507C23.928 26.5549 24.0417 26.7724 24.2462 26.8366C24.6419 26.9607 24.9078 27.2831 24.9078 27.6387V28.467C24.9078 28.9384 24.4538 29.322 23.8958 29.322C23.3377 29.322 22.8838 28.9384 22.8838 28.467C22.8838 28.2649 22.9696 28.0685 23.1253 27.9139C23.2774 27.763 23.2781 27.5177 23.127 27.3659C22.9759 27.2141 22.7301 27.2133 22.5781 27.3642C22.4851 27.4565 22.405 27.5574 22.3385 27.6646C22.0934 27.4331 21.9503 27.1286 21.9503 26.8103C21.9503 26.2362 22.4016 25.7318 23.0479 25.5838C23.2568 25.5359 23.3873 25.328 23.3394 25.1194C23.2915 24.9108 23.0832 24.7806 22.8743 24.8284C22.6141 24.888 22.3746 24.9874 22.1622 25.118C22.0245 24.9453 21.9503 24.7431 21.9503 24.5323C21.9505 23.9495 22.5039 23.475 23.1862 23.4705C23.1897 23.4706 23.1931 23.4711 23.1965 23.4711C23.2851 23.4711 23.3742 23.4409 23.4471 23.3793C23.5959 23.2535 23.6258 23.0402 23.5259 22.8796C23.523 22.8749 23.5203 22.87 23.5172 22.8654C23.5156 22.8631 23.5136 22.8609 23.512 22.8585C23.506 22.8501 23.4998 22.8419 23.4931 22.8339L23.4926 22.8332C23.4278 22.7568 23.3506 22.6303 23.3506 22.4615C23.3506 22.1043 23.6999 21.8136 24.1292 21.8136C24.5585 21.8136 24.9078 22.1043 24.9078 22.4615C24.9078 22.6755 25.0816 22.849 25.296 22.849C25.5103 22.849 25.6841 22.6755 25.6841 22.4615C25.6841 22.1043 26.0334 21.8136 26.4627 21.8136C26.892 21.8136 27.2414 22.1043 27.2414 22.4615C27.2414 22.557 27.2163 22.6384 27.1831 22.7054C26.9624 22.7262 26.7488 22.7795 26.5461 22.8648C26.3486 22.948 26.256 23.1753 26.3393 23.3725C26.4225 23.5696 26.6502 23.6622 26.8477 23.579C27.0155 23.5084 27.196 23.472 27.3843 23.4706C27.388 23.4707 27.3917 23.4711 27.3954 23.4711C27.3989 23.4711 27.4023 23.4706 27.4058 23.4705C28.088 23.4749 28.6415 23.9495 28.6415 24.5323C28.6415 24.8987 28.4182 25.2351 28.0442 25.4322C27.9169 25.4992 27.8372 25.6311 27.8372 25.7749C27.8372 25.9186 27.9169 26.0505 28.0442 26.1176Z" fill="#FE762A"/>
</svg>
