<svg width="50" height="50" viewBox="0 0 50 50" fill="none" xmlns="http://www.w3.org/2000/svg">
<path d="M27.5201 26.7V14.2952C27.5201 12.1551 25.8151 10.4201 23.7118 10.4201C21.6086 10.4201 19.9036 12.1551 19.9036 14.2952V26.6945C16.6119 28.8314 15.6459 33.2791 17.746 36.6285C19.042 38.6954 21.2833 39.9484 23.6929 39.953L23.7308 39.9585C27.6354 39.9511 30.7947 36.7243 30.7874 32.7512C30.7828 30.2994 29.5514 28.0188 27.5201 26.7ZM20.7372 38.0437C17.871 36.3599 16.889 32.6305 18.5438 29.7141C19.0698 28.7871 19.8262 28.0174 20.7372 27.4822C20.9054 27.3834 21.0086 27.2005 21.0079 27.003V14.2952C21.0079 12.7635 22.2282 11.5218 23.7335 11.5218C25.2388 11.5218 26.4591 12.7635 26.4591 14.2952V27.003C26.4584 27.2005 26.5616 27.3834 26.7298 27.4822C29.596 29.166 30.578 32.8953 28.9232 35.8118C27.2684 38.7283 23.6034 39.7276 20.7372 38.0437Z" fill="#FE7021"/>
<path d="M24.2716 28.8039V20.4478C24.2716 20.1436 24.0292 19.897 23.7303 19.897C23.4313 19.897 23.1889 20.1436 23.1889 20.4478V28.8039C21.144 29.1024 19.7239 31.0311 20.0172 33.1119C20.2819 34.9901 21.8656 36.3831 23.7303 36.3779C25.7961 36.3837 27.4755 34.6843 27.4813 32.5822C27.4864 30.6848 26.1174 29.0733 24.2716 28.8039ZM23.7303 35.2707C22.2623 35.2707 21.0723 34.0598 21.0723 32.5661C21.0753 31.0737 22.2635 29.8646 23.7303 29.8615C25.1982 29.8615 26.3882 31.0724 26.3882 32.5661C26.3882 34.0598 25.1982 35.2707 23.7303 35.2707Z" fill="#FE7021"/>
<path d="M32.7981 14.2068H29.4147C29.1158 14.2068 28.8734 14.4534 28.8734 14.7576C28.8734 15.0618 29.1158 15.3084 29.4147 15.3084H32.7981C33.097 15.3084 33.3394 15.0618 33.3394 14.7576C33.3394 14.4534 33.097 14.2068 32.7981 14.2068Z" fill="#FE7021"/>
<path d="M32.0777 16.9612H30.091C29.7921 16.9612 29.5497 17.2078 29.5497 17.512C29.5497 17.8162 29.7921 18.0629 30.091 18.0629H32.0777C32.3767 18.0629 32.6191 17.8162 32.6191 17.512C32.6191 17.2078 32.3767 16.9612 32.0777 16.9612Z" fill="#FE7021"/>
<path d="M32.7981 19.7153H29.4147C29.1158 19.7153 28.8734 19.9619 28.8734 20.2661C28.8734 20.5703 29.1158 20.817 29.4147 20.817H32.7981C33.097 20.817 33.3394 20.5703 33.3394 20.2661C33.3394 19.9619 33.097 19.7153 32.7981 19.7153Z" fill="#FE7021"/>
<path d="M32.0777 22.47H30.091C29.7921 22.47 29.5497 22.7166 29.5497 23.0208C29.5497 23.325 29.7921 23.5717 30.091 23.5717H32.0777C32.3767 23.5717 32.6191 23.325 32.6191 23.0208C32.6191 22.7166 32.3767 22.47 32.0777 22.47Z" fill="#FE7021"/>
<path d="M32.7981 25.2234H29.4147C29.1158 25.2234 28.8734 25.47 28.8734 25.7742C28.8734 26.0784 29.1158 26.325 29.4147 26.325H32.7981C33.097 26.325 33.3394 26.0784 33.3394 25.7742C33.3394 25.47 33.097 25.2234 32.7981 25.2234Z" fill="#FE7021"/>
<path d="M49.691 25.1901C49.691 38.8023 38.6307 49.8371 24.9871 49.8371C11.3435 49.8371 0.283203 38.8023 0.283203 25.1901C0.283203 11.5778 11.3435 0.542969 24.9871 0.542969C38.6307 0.542969 49.691 11.5778 49.691 25.1901ZM1.50578 25.1901C1.50578 38.1286 12.0187 48.6174 24.9871 48.6174C37.9555 48.6174 48.4684 38.1286 48.4684 25.1901C48.4684 12.2515 37.9555 1.76274 24.9871 1.76274C12.0187 1.76274 1.50578 12.2515 1.50578 25.1901Z" fill="#FE7021"/>
</svg>
