<svg width="61" height="60" viewBox="0 0 61 60" fill="none" xmlns="http://www.w3.org/2000/svg">
<g clip-path="url(#clip0)">
<path d="M56.3093 17.3975C56.1679 16.8776 55.8287 16.4428 55.3544 16.1736L53.63 15.1945C53.1558 14.9254 52.6033 14.8538 52.0741 14.9933C51.5454 15.1324 51.1032 15.466 50.8294 15.9323L49.8004 17.6847C49.3637 17.483 48.8734 17.4385 48.4015 17.5627C47.8727 17.7022 47.4305 18.0358 47.1568 18.5021L47.0918 18.6124V11.1465C47.0918 8.76347 45.1207 6.8252 42.6973 6.8252H36.2872C36.1439 5.84975 35.2907 5.09668 34.2598 5.09668H31.2715V2.96484C31.2715 1.53522 30.0886 0.37207 28.6348 0.37207H22.1895C20.7356 0.37207 19.5527 1.53522 19.5527 2.96484V5.09668H16.5645C15.5336 5.09668 14.6798 5.84975 14.537 6.8252H8.12695C5.70355 6.8252 3.73242 8.76347 3.73242 11.1465V55.0508C3.73242 57.4338 5.70355 59.3721 8.12695 59.3721H35.5543C36.0396 59.3721 36.4332 58.9854 36.4332 58.5078C36.4332 58.0302 36.0396 57.6436 35.5543 57.6436H8.12695C6.6731 57.6436 5.49023 56.4804 5.49023 55.0508V11.1465C5.49023 9.71686 6.6731 8.55371 8.12695 8.55371H14.5137V12.7598C14.5137 13.8716 15.4338 14.7764 16.5645 14.7764H34.2598C35.3904 14.7764 36.3106 13.8716 36.3106 12.7598V11.9531H41.877V27.4945L32.9336 42.7266C32.6104 43.2766 32.464 43.9023 32.5102 44.5361L32.902 49.935C32.9364 50.4072 33.2046 50.8326 33.6194 51.0729C33.8482 51.2053 34.105 51.2724 34.3632 51.2724C34.5729 51.2724 34.783 51.2278 34.9789 51.1387L40.0317 48.8344C40.6369 48.5585 41.1331 48.1124 41.4663 47.5448L41.877 46.8457V54.2441H8.94727V11.9531H11.291C11.7762 11.9531 12.1699 11.5665 12.1699 11.0889C12.1699 10.6113 11.7762 10.2246 11.291 10.2246H8.6543C7.84634 10.2246 7.18945 10.8706 7.18945 11.665V54.5322C7.18945 55.3267 7.84634 55.9727 8.6543 55.9727H42.1699C42.9774 55.9727 43.6348 55.3267 43.6348 54.5322V43.8514L45.334 40.9575V55.0508C45.334 56.4804 44.1511 57.6436 42.6973 57.6436H39.6554C39.1702 57.6436 38.7765 58.0302 38.7765 58.5078C38.7765 58.985 39.1702 59.3721 39.6554 59.3721H42.6973C45.1202 59.3721 47.0918 57.4333 47.0918 55.0508V37.9637L54.5067 25.3347L55.6781 23.3397C55.9518 22.8734 56.0246 22.3301 55.8827 21.8102C55.7564 21.3461 55.4721 20.9513 55.0757 20.6799L56.1047 18.9275C56.3785 18.4612 56.4512 17.9179 56.3093 17.3975ZM52.3515 16.7966C52.4321 16.6593 52.6111 16.612 52.7511 16.6912L54.4755 17.6703C54.5666 17.722 54.6 17.8022 54.6119 17.8449C54.6234 17.8881 54.6353 17.9732 54.5827 18.0632L53.5577 19.8084L51.327 18.5422L52.3515 16.7966ZM48.6789 19.3664C48.7315 19.2768 48.813 19.2439 48.8565 19.2327C48.9004 19.2205 48.9869 19.2093 49.078 19.2611L54.0484 22.0829C54.14 22.1347 54.1734 22.2144 54.1849 22.2576C54.1968 22.3004 54.2082 22.3859 54.1556 22.4755L53.4236 23.7219L47.9474 20.6128L48.6789 19.3664ZM21.3106 2.96484C21.3106 2.48815 21.7047 2.10059 22.1895 2.10059H28.6348C29.1195 2.10059 29.5137 2.48815 29.5137 2.96484V5.09668H21.3106V2.96484ZM34.5527 12.7598C34.5527 12.9187 34.4214 13.0479 34.2598 13.0479H16.5645C16.4029 13.0479 16.2715 12.9187 16.2715 12.7598V7.11328C16.2715 6.95438 16.4029 6.8252 16.5645 6.8252H34.2598C34.4214 6.8252 34.5527 6.95438 34.5527 7.11328V12.7598ZM42.1699 10.2246H36.3106V8.55371H42.6973C44.1511 8.55371 45.334 9.71686 45.334 11.1465V21.6067L43.6348 24.5006V11.665C43.6348 10.8706 42.9779 10.2246 42.1699 10.2246ZM47.0685 22.11L52.5447 25.219L41.7698 43.571L36.2932 40.4619L47.0685 22.11ZM39.9443 46.6805C39.7928 46.9385 39.5671 47.141 39.2924 47.2662V47.2666L34.6251 49.3948L34.2634 44.4132C34.2424 44.1251 34.3092 43.8411 34.4562 43.5913L35.4143 41.9586L40.8909 45.0677L39.9443 46.6805Z" fill="#FE7021"/>
<path d="M12.8109 48.5907C12.978 48.737 13.1868 48.8085 13.3941 48.8085C13.6367 48.8085 13.878 48.7104 14.0515 48.5182L15.7942 46.5889L17.1432 48.1712C17.4137 48.4889 17.8106 48.6762 18.2318 48.6861C18.6534 48.6933 19.058 48.5268 19.3432 48.222L20.9655 46.4899L22.7636 48.4912C23.0854 48.8491 23.6407 48.8828 24.0042 48.5668C24.3681 48.2508 24.4024 47.7048 24.0811 47.347L22.0678 45.1062C21.7936 44.801 21.399 44.6236 20.9852 44.6196C20.9802 44.6191 20.9751 44.6191 20.9701 44.6191C20.5613 44.6191 20.1695 44.7879 19.8925 45.0837L18.2762 46.8095L16.923 45.2228C16.6493 44.9018 16.2478 44.7141 15.8212 44.7078C15.3946 44.6984 14.9885 44.8784 14.7056 45.1917L12.7377 47.3704C12.415 47.7273 12.4479 48.2738 12.8109 48.5907Z" fill="#FE7021"/>
<path d="M38.7422 19.4434C38.7422 18.9658 38.3485 18.5791 37.8633 18.5791H12.9023C12.4171 18.5791 12.0234 18.9658 12.0234 19.4434C12.0234 19.921 12.4171 20.3076 12.9023 20.3076H37.8633C38.3485 20.3076 38.7422 19.921 38.7422 19.4434Z" fill="#FE7021"/>
<path d="M13.0195 24.917H23.4492C23.9344 24.917 24.3281 24.5303 24.3281 24.0527C24.3281 23.5751 23.9344 23.1885 23.4492 23.1885H13.0195C12.5343 23.1885 12.1406 23.5751 12.1406 24.0527C12.1406 24.5303 12.5343 24.917 13.0195 24.917Z" fill="#FE7021"/>
<path d="M32.5312 24.0527C32.5312 23.5751 32.1376 23.1885 31.6523 23.1885H27.5508C27.0656 23.1885 26.6719 23.5751 26.6719 24.0527C26.6719 24.5303 27.0656 24.917 27.5508 24.917H31.6523C32.1376 24.917 32.5312 24.5303 32.5312 24.0527Z" fill="#FE7021"/>
<path d="M13.0195 29.5264H21.457C21.9423 29.5264 22.3359 29.1397 22.3359 28.6621C22.3359 28.1845 21.9423 27.7979 21.457 27.7979H13.0195C12.5343 27.7979 12.1406 28.1845 12.1406 28.6621C12.1406 29.1397 12.5343 29.5264 13.0195 29.5264Z" fill="#FE7021"/>
<path d="M29.1914 27.7979H25.207C24.7218 27.7979 24.3281 28.1845 24.3281 28.6621C24.3281 29.1397 24.7218 29.5264 25.207 29.5264H29.1914C29.6766 29.5264 30.0703 29.1397 30.0703 28.6621C30.0703 28.1845 29.6766 27.7979 29.1914 27.7979Z" fill="#FE7021"/>
<path d="M13.0195 34.1357H19.1133C19.5985 34.1357 19.9922 33.7491 19.9922 33.2715C19.9922 32.7939 19.5985 32.4072 19.1133 32.4072H13.0195C12.5343 32.4072 12.1406 32.7939 12.1406 33.2715C12.1406 33.7491 12.5343 34.1357 13.0195 34.1357Z" fill="#FE7021"/>
<path d="M30.0703 33.2715C30.0703 32.7939 29.6766 32.4072 29.1914 32.4072H22.8633C22.3781 32.4072 21.9844 32.7939 21.9844 33.2715C21.9844 33.7491 22.3781 34.1357 22.8633 34.1357H29.1914C29.6766 34.1357 30.0703 33.7491 30.0703 33.2715Z" fill="#FE7021"/>
<path d="M13.0195 38.7451H19.1133C19.5985 38.7451 19.9922 38.3585 19.9922 37.8809C19.9922 37.4033 19.5985 37.0166 19.1133 37.0166H13.0195C12.5343 37.0166 12.1406 37.4033 12.1406 37.8809C12.1406 38.3585 12.5343 38.7451 13.0195 38.7451Z" fill="#FE7021"/>
</g>
<defs>
<clipPath id="clip0">
<rect width="60" height="59" fill="white" transform="translate(0.0996094 0.37207)"/>
</clipPath>
</defs>
</svg>
